<?xml version="1.0" encoding="UTF-8" standalone="no"?>
<svg
   xmlns:dc="http://purl.org/dc/elements/1.1/"
   xmlns:cc="http://creativecommons.org/ns#"
   xmlns:rdf="http://www.w3.org/1999/02/22-rdf-syntax-ns#"
   xmlns:svg="http://www.w3.org/2000/svg"
   xmlns="http://www.w3.org/2000/svg"
   xmlns:sodipodi="http://sodipodi.sourceforge.net/DTD/sodipodi-0.dtd"
   xmlns:inkscape="http://www.inkscape.org/namespaces/inkscape"
   inkscape:export-ydpi="576"
   inkscape:export-xdpi="576"
   inkscape:export-filename="E:\TR Design Studio Creative\Project Design\TR Creative Design\Icon Design\Project Hiring\Deemak\2 - Farming\Send\2 - Flat\1 - Wheat.png"
   sodipodi:docname="Template Export.svg"
   inkscape:version="1.0 (4035a4fb49, 2020-05-01)"
   id="svg831"
   version="1.1"
   viewBox="0 0 22.577778 22.577778"
   height="64pt"
   width="64pt">
  <defs
     id="defs825">
    <pattern
       y="0"
       x="0"
       height="6"
       width="6"
       patternUnits="userSpaceOnUse"
       id="EMFhbasepattern" />
    <pattern
       y="0"
       x="0"
       height="6"
       width="6"
       patternUnits="userSpaceOnUse"
       id="EMFhbasepattern-9" />
    <pattern
       y="0"
       x="0"
       height="6"
       width="6"
       patternUnits="userSpaceOnUse"
       id="EMFhbasepattern-0" />
    <pattern
       y="0"
       x="0"
       height="6"
       width="6"
       patternUnits="userSpaceOnUse"
       id="EMFhbasepattern-7" />
    <pattern
       y="0"
       x="0"
       height="6"
       width="6"
       patternUnits="userSpaceOnUse"
       id="EMFhbasepattern-2" />
    <pattern
       y="0"
       x="0"
       height="6"
       width="6"
       patternUnits="userSpaceOnUse"
       id="EMFhbasepattern-98" />
    <pattern
       y="0"
       x="0"
       height="6"
       width="6"
       patternUnits="userSpaceOnUse"
       id="EMFhbasepattern-6" />
    <pattern
       y="0"
       x="0"
       height="6"
       width="6"
       patternUnits="userSpaceOnUse"
       id="EMFhbasepattern-01" />
    <pattern
       y="0"
       x="0"
       height="6"
       width="6"
       patternUnits="userSpaceOnUse"
       id="EMFhbasepattern-07" />
    <pattern
       y="0"
       x="0"
       height="6"
       width="6"
       patternUnits="userSpaceOnUse"
       id="EMFhbasepattern-8" />
    <pattern
       y="0"
       x="0"
       height="6"
       width="6"
       patternUnits="userSpaceOnUse"
       id="EMFhbasepattern-4" />
    <pattern
       y="0"
       x="0"
       height="6"
       width="6"
       patternUnits="userSpaceOnUse"
       id="EMFhbasepattern-40" />
    <pattern
       y="0"
       x="0"
       height="6"
       width="6"
       patternUnits="userSpaceOnUse"
       id="EMFhbasepattern-08" />
    <pattern
       y="0"
       x="0"
       height="6"
       width="6"
       patternUnits="userSpaceOnUse"
       id="EMFhbasepattern-04" />
    <pattern
       y="0"
       x="0"
       height="6"
       width="6"
       patternUnits="userSpaceOnUse"
       id="EMFhbasepattern-014" />
    <pattern
       y="0"
       x="0"
       height="6"
       width="6"
       patternUnits="userSpaceOnUse"
       id="EMFhbasepattern-27" />
    <pattern
       y="0"
       x="0"
       height="6"
       width="6"
       patternUnits="userSpaceOnUse"
       id="EMFhbasepattern-09" />
    <pattern
       y="0"
       x="0"
       height="6"
       width="6"
       patternUnits="userSpaceOnUse"
       id="EMFhbasepattern-5" />
    <pattern
       y="0"
       x="0"
       height="6"
       width="6"
       patternUnits="userSpaceOnUse"
       id="EMFhbasepattern-018" />
  </defs>
  <sodipodi:namedview
     inkscape:document-rotation="0"
     inkscape:snap-global="true"
     inkscape:snap-nodes="false"
     inkscape:bbox-nodes="true"
     inkscape:snap-bbox="true"
     showguides="true"
     inkscape:snap-midpoints="true"
     inkscape:snap-smooth-nodes="true"
     inkscape:snap-intersection-paths="true"
     inkscape:object-paths="true"
     inkscape:showpageshadow="false"
     inkscape:pagecheckerboard="true"
     inkscape:window-maximized="1"
     inkscape:window-y="-8"
     inkscape:window-x="-8"
     inkscape:window-height="715"
     inkscape:window-width="1366"
     units="pt"
     showgrid="false"
     inkscape:current-layer="layer1"
     inkscape:document-units="pt"
     inkscape:cy="42.778201"
     inkscape:cx="2.1389105"
     inkscape:zoom="4.4415145"
     inkscape:pageshadow="2"
     inkscape:pageopacity="0.0"
     borderopacity="1.0"
     bordercolor="#666666"
     pagecolor="#ffffff"
     id="base">
    <inkscape:grid
       id="grid1378"
       type="xygrid" />
    <sodipodi:guide
       inkscape:locked="false"
       id="guide1380"
       orientation="78.000048,0"
       position="0.97013831,21.607643" />
    <sodipodi:guide
       inkscape:locked="false"
       id="guide1382"
       orientation="0,78.000005"
       position="0.97013831,0.97013129" />
    <sodipodi:guide
       inkscape:locked="false"
       id="guide1384"
       orientation="-78.000048,0"
       position="21.607639,0.97013129" />
    <sodipodi:guide
       inkscape:locked="false"
       id="guide1386"
       orientation="0,-78.000005"
       position="21.607639,21.607643" />
  </sodipodi:namedview>
  <metadata
     id="metadata828">
    <rdf:RDF>
      <cc:Work
         rdf:about="">
        <dc:format>image/svg+xml</dc:format>
        <dc:type
           rdf:resource="http://purl.org/dc/dcmitype/StillImage" />
        <dc:title></dc:title>
      </cc:Work>
    </rdf:RDF>
  </metadata>
  <g
     transform="translate(0,-274.42223)"
     id="layer1"
     inkscape:groupmode="layer"
     inkscape:label="Icon">
    <path
       id="path1298"
       style="color:#000000;font-style:normal;font-variant:normal;font-weight:normal;font-stretch:normal;font-size:medium;line-height:normal;font-family:sans-serif;font-variant-ligatures:normal;font-variant-position:normal;font-variant-caps:normal;font-variant-numeric:normal;font-variant-alternates:normal;font-variant-east-asian:normal;font-feature-settings:normal;font-variation-settings:normal;text-indent:0;text-align:start;text-decoration:none;text-decoration-line:none;text-decoration-style:solid;text-decoration-color:#000000;letter-spacing:normal;word-spacing:normal;text-transform:none;writing-mode:lr-tb;direction:ltr;text-orientation:mixed;dominant-baseline:auto;baseline-shift:baseline;text-anchor:start;white-space:normal;shape-padding:0;shape-margin:0;inline-size:0;clip-rule:nonzero;display:inline;overflow:visible;visibility:visible;opacity:1;isolation:auto;mix-blend-mode:normal;color-interpolation:sRGB;color-interpolation-filters:linearRGB;solid-color:#000000;solid-opacity:1;vector-effect:none;fill:#000000;fill-opacity:1;fill-rule:nonzero;stroke:none;stroke-width:0.665727;stroke-linecap:round;stroke-linejoin:round;stroke-miterlimit:4;stroke-dasharray:none;stroke-dashoffset:0;stroke-opacity:1;color-rendering:auto;image-rendering:auto;shape-rendering:auto;text-rendering:auto;enable-background:accumulate;stop-color:#000000;stop-opacity:1"
       d="m 11.126681,275.39236 c -1.2941818,0 -2.3462921,1.04968 -2.3462954,2.3437 v 9.5412 c -1.4394067,0.84193 -2.3769387,2.34192 -2.381399,4.02232 -3.67e-5,2.60745 2.120451,4.7303 4.7276944,4.7303 2.607247,0 4.727767,-2.12285 4.727698,-4.7303 -3.34e-4,-1.68401 -0.938484,-3.18763 -2.380754,-4.03207 v -9.53145 c 0,-1.2942 -1.052816,-2.3437 -2.346944,-2.3437 z m 0,0.66573 c 0.937123,0 1.680569,0.74133 1.680569,1.67797 v 9.65953 a 0.33289658,0.33289658 0 0 0 0.182036,0.2945 c 1.351747,0.69717 2.19906,2.08838 2.199366,3.60949 6.1e-5,2.24767 -1.814473,4.06457 -4.061971,4.06457 -2.247495,0 -4.0613493,-1.81689 -4.0613192,-4.06457 0.00493,-1.51712 0.8530315,-2.90254 2.2013167,-3.59714 a 0.33289658,0.33289658 0 0 0 0.1794332,-0.2971 v -9.66928 c 0,-0.93682 0.7433733,-1.67797 1.6805693,-1.67797 z m 0.0078,0.99728 c -0.523917,0 -1.00054,0.38508 -1.00054,0.91148 v 11.01829 c -0.9704023,0.41448 -1.6628307,1.30944 -1.6630139,2.38335 6.7e-6,1.46674 1.1968192,2.66354 2.6635539,2.66355 1.466735,-10e-6 2.663547,-1.19681 2.663554,-2.66355 -1.83e-4,-1.07403 -0.695677,-1.96894 -1.666266,-2.38335 v -11.01829 c 0,-0.5255 -0.473372,-0.91148 -0.997288,-0.91148 z m 3.275319,0 a 0.33286329,0.33286329 0 0 0 -0.332211,0.33222 0.33286329,0.33286329 0 0 0 0.332211,0.33417 h 0.854912 a 0.33286329,0.33286329 0 0 0 0.334165,-0.33417 0.33286329,0.33286329 0 0 0 -0.334165,-0.33222 z m -3.275319,0.66639 c 0.213795,0 0.331562,0.13016 0.331562,0.24509 v 11.16781 a 0.33289658,0.33289658 0 0 0 0.237947,0.31986 c 0.847672,0.25274 1.427516,1.02943 1.42767,1.91397 -7e-6,1.10696 -0.890226,1.99781 -1.997179,1.99782 -1.106953,-10e-6 -1.997821,-0.89086 -1.9978277,-1.99782 1.497e-4,-0.88454 0.579994,-1.66123 1.4276697,-1.91397 a 0.33289658,0.33289658 0 0 0 0.235993,-0.31986 v -11.16781 c 0,-0.11398 0.120367,-0.24509 0.334165,-0.24509 z m 3.275319,0.99728 a 0.33286329,0.33286329 0 0 0 -0.332211,0.33416 0.33286329,0.33286329 0 0 0 0.332211,0.33157 h 1.437423 a 0.33286329,0.33286329 0 0 0 0.331565,-0.33157 0.33286329,0.33286329 0 0 0 -0.331565,-0.33416 z m 0,1.585 a 0.33286329,0.33286329 0 0 0 -0.332211,0.33156 0.33286329,0.33286329 0 0 0 0.332211,0.33156 h 0.854912 a 0.33286329,0.33286329 0 0 0 0.334165,-0.33156 0.33286329,0.33286329 0 0 0 -0.334165,-0.33156 z m 0,1.41012 a 0.33286329,0.33286329 0 0 0 -0.332211,0.33416 0.33286329,0.33286329 0 0 0 0.332211,0.33221 h 1.437423 a 0.33286329,0.33286329 0 0 0 0.331565,-0.33221 0.33286329,0.33286329 0 0 0 -0.331565,-0.33416 z m 0,1.66626 a 0.33286329,0.33286329 0 0 0 -0.332211,0.33156 0.33286329,0.33286329 0 0 0 0.332211,0.33417 h 0.854912 a 0.33286329,0.33286329 0 0 0 0.334165,-0.33417 0.33286329,0.33286329 0 0 0 -0.334165,-0.33156 z m 0,1.66367 a 0.33286329,0.33286329 0 0 0 -0.332211,0.33416 0.33286329,0.33286329 0 0 0 0.332211,0.33157 h 1.437423 a 0.33286329,0.33286329 0 0 0 0.331565,-0.33157 0.33286329,0.33286329 0 0 0 -0.331565,-0.33416 z" />
  </g>
</svg>
